Coordinates
version=1
nRows=12
nColumns=34
inDegrees=yes

Units are S.I. units (second, meters, Newtons, ...)
If the header above contains a line with 'inDegrees', this indicates whether rotational values are in degrees (yes) or radians (no).

endheader
time	pelvis_tilt	pelvis_list	pelvis_rotation	pelvis_tx	pelvis_ty	pelvis_tz	hip_flexion_r	hip_adduction_r	hip_rotation_r	knee_angle_r	ankle_angle_r	subtalar_angle_r	mtp_angle_r	hip_flexion_l	hip_adduction_l	hip_rotation_l	knee_angle_l	ankle_angle_l	subtalar_angle_l	mtp_angle_l	lumbar_extension	lumbar_bending	lumbar_rotation	arm_flex_r	arm_add_r	arm_rot_r	elbow_flex_r	pro_sup_r	arm_flex_l	arm_add_l	arm_rot_l	elbow_flex_l	pro_sup_l
      7.63333330	      1.33990536	      1.35119220	      2.97565483	      0.90527227	      0.92691105	     -0.08291900	     -0.60372787	     -4.10998501	    -26.33550992	      0.00000000	      5.48470527	      1.67286173	      0.00000000	     -0.29193837	     -1.94554103	    -24.16323081	      0.00000000	      4.40844023	      7.46703599	      0.00000000	     -6.07179216	      0.10470569	     -1.05617702	      9.23258215	     -8.34404777	     23.02689187	     29.82687221	     76.54275135	      8.13983683	     -6.02600147	     18.78207483	     24.89110989	     75.16968391
      7.65000000	      1.35104207	      1.34491482	      2.96989622	      0.90479715	      0.92419557	     -0.08278105	     -0.60852946	     -4.11573602	    -26.33395029	      0.00000000	      5.49201244	      1.67160263	      0.00000000	     -0.28659516	     -1.95518393	    -24.15986613	      0.00000000	      4.41339931	      7.46721906	      0.00000000	     -6.06875647	      0.10547166	     -1.05602579	      9.22728316	     -8.34587436	     23.02820986	     29.82232778	     76.54218638	      8.14126245	     -6.02520572	     18.78496903	     24.89401149	     75.16951827
      7.66666670	      1.36454295	      1.34191173	      2.96835921	      0.90323893	      0.92660911	     -0.08275951	     -0.60041654	     -4.11731159	    -26.33127129	      0.00000000	      5.50043350	      1.67017405	      0.00000000	     -0.27472350	     -1.96328398	    -24.15761259	      0.00000000	      4.41965630	      7.46666710	      0.00000000	     -6.06288217	      0.10580476	     -1.05584080	      9.22116432	     -8.34736217	     23.02945112	     29.81887566	     76.54177895	      8.14157623	     -6.02594914	     18.78709665	     24.89638711	     75.16939551
      7.68333330	      1.30031035	      1.21456311	      3.05248778	      0.90389217	      0.92562771	     -0.08289004	     -0.53234273	     -3.96762280	    -26.11954549	      0.00000000	      5.89248918	      1.60895279	      0.00000000	     -0.16506506	     -2.11697903	    -24.01046053	      0.00000000	      4.70910999	      7.44363081	      0.00000000	     -6.01947893	      0.14821553	     -1.00479662	      9.09672217	     -8.40148054	     23.08020178	     29.70606510	     76.52337809	      8.29558477	     -6.10509124	     18.87112842	     25.03705132	     75.16326236
      7.70000000	      1.30780171	      1.21327255	      3.04171380	      0.90365275	      0.92636013	     -0.08321088	     -0.53518763	     -3.97779792	    -26.11955355	      0.00000000	      5.89780726	      1.60623382	      0.00000000	     -0.15130271	     -2.11655591	    -24.00616348	      0.00000000	      4.71280083	      7.44349544	      0.00000000	     -6.01421488	      0.15280288	     -0.99868856	      9.09946143	     -8.39934155	     23.08157081	     29.70675768	     76.52285219	      8.29234563	     -6.10424004	     18.87462849	     25.03918862	     75.16321804
      7.71666670	      1.31172330	      1.21133574	      3.03085550	      0.90278469	      0.92878056	     -0.08355538	     -0.52783298	     -3.98897679	    -26.11739951	      0.00000000	      5.90428067	      1.60327911	      0.00000000	     -0.13938328	     -2.10770726	    -23.99949018	      0.00000000	      4.71664550	      7.44356177	      0.00000000	     -6.00532616	      0.16026915	     -0.99056202	      9.10619014	     -8.39731933	     23.08336422	     29.70864610	     76.52206350	      8.29327184	     -6.10511824	     18.87931963	     25.04407143	     75.16314317
      7.73333330	      1.31282792	      1.20718104	      3.02912959	      0.90325687	      0.93175896	     -0.08330528	     -0.52146638	     -3.99355238	    -26.11719067	      0.00000000	      5.90513156	      1.60270696	      0.00000000	     -0.13296316	     -2.10479479	    -23.99818679	      0.00000000	      4.71698694	      7.44350962	      0.00000000	     -6.00372482	      0.16146026	     -0.98983404	      9.10862061	     -8.39750686	     23.08344420	     29.70926409	     76.52194117	      8.29556638	     -6.10536294	     18.87984524	     25.04545270	     75.16313282
      7.75000000	      1.26734138	      1.25396864	      2.88185972	      0.90210110	      0.92824709	     -0.08395637	     -0.41141881	     -4.06160409	    -26.13299422	      0.00000000	      5.90845849	      1.58081811	      0.00000000	     -0.10272674	     -2.00833067	    -23.95913344	      0.00000000	      4.71412757	      7.44157871	      0.00000000	     -5.96488101	      0.20769876	     -0.96227047	      9.24689369	     -8.39985730	     23.08877984	     29.73769980	     76.51547023	      8.47064191	     -6.14312346	     18.90202115	     25.12781574	     75.16228033
      7.76666670	      1.25319295	      1.24515743	      2.89071447	      0.90434165	      0.92649992	     -0.08356536	     -0.40906607	     -4.05703299	    -26.12880927	      0.00000000	      5.90639469	      1.58101275	      0.00000000	     -0.10509392	     -1.99301101	    -23.95959729	      0.00000000	      4.71395070	      7.43929670	      0.00000000	     -5.96940687	      0.20077871	     -0.95749702	      9.26134426	     -8.40201985	     23.08888318	     29.73998091	     76.51488976	      8.48188250	     -6.14728268	     18.90413623	     25.13356053	     75.16218154
      7.78333330	      0.70350263	      1.26504068	      2.78442768	      0.90413354	      0.92764251	     -0.08281135	      0.22559428	     -4.09370354	    -25.54678514	      0.00000000	      5.62019435	      0.77139787	      0.00000000	      0.48931570	     -1.93721128	    -23.80882446	      0.00000000	      4.60945783	      6.85369571	      0.00000000	     -5.44472387	      0.00318198	     -0.60543587	      9.27921765	     -8.57085599	     23.72006697	     29.68170064	     76.27229093	      8.47775775	     -6.64716803	     20.27888827	     26.30649979	     75.13737879
      7.80000000	      0.69728489	      1.25893240	      2.77348268	      0.90229161	      0.92728425	     -0.08274390	      0.24513298	     -4.08493887	    -25.54808721	      0.00000000	      5.60433619	      0.76203490	      0.00000000	      0.47259349	     -1.93502790	    -23.80107355	      0.00000000	      4.63745056	      6.84456410	      0.00000000	     -5.39586304	     -0.02384365	     -0.61594204	      9.42457442	     -8.59775503	     23.71307747	     29.72555556	     76.26110423	      8.63238759	     -6.74311496	     20.28039410	     26.32563858	     75.12855118
      7.81666670	      0.67753673	      1.23383563	      2.79638008	      0.90312176	      0.92854515	     -0.08297474	      0.28492796	     -4.04561418	    -25.47186042	      0.00000000	      5.59038893	      0.77597397	      0.00000000	      0.50492211	     -1.96466405	    -23.77077371	      0.00000000	      4.68633584	      6.83789476	      0.00000000	     -5.40424747	     -0.07261929	     -0.63213319	      9.58380383	     -8.62530862	     23.70902770	     29.77376966	     76.24874107	      8.80922835	     -6.83179180	     20.28553564	     26.35630696	     75.11862776
